<?xml version="1.0" encoding="UTF-8" standalone="no"?>
<svg
   enable-background="new 0 0 400 400"
   viewBox="0 0 400 400"
   version="1.1"
   id="svg10"
   sodipodi:docname="山水.svg"
   xml:space="preserve"
   inkscape:export-filename="山水.png"
   inkscape:export-xdpi="96"
   inkscape:export-ydpi="96"
   inkscape:version="1.2.2 (b0a8486541, 2022-12-01)"
   xmlns:inkscape="http://www.inkscape.org/namespaces/inkscape"
   xmlns:sodipodi="http://sodipodi.sourceforge.net/DTD/sodipodi-0.dtd"
   xmlns="http://www.w3.org/2000/svg"
   xmlns:svg="http://www.w3.org/2000/svg"><defs
     id="defs14" /><sodipodi:namedview
     id="namedview12"
     pagecolor="#ffffff"
     bordercolor="#000000"
     borderopacity="0.25"
     inkscape:showpageshadow="2"
     inkscape:pageopacity="1"
     inkscape:pagecheckerboard="true"
     inkscape:deskcolor="#ffffff"
     showgrid="false"
     inkscape:zoom="0.834386"
     inkscape:cx="435.05044"
     inkscape:cy="318.79729"
     inkscape:window-width="1920"
     inkscape:window-height="1056"
     inkscape:window-x="1200"
     inkscape:window-y="430"
     inkscape:window-maximized="1"
     inkscape:current-layer="svg10" /><path
     d="m 273.82802,218.09811 c 1.40661,-5.8501 3.89,-11.68719 4.00641,-17.55029 0.41713,-20.29333 0.0194,-40.59966 -0.097,-60.89949 -0.14551,-25.61691 -0.33952,-51.227332 -0.49473,-76.84425 -0.0291,-3.997565 0,-8.00163 0,-12.148698 1.73643,-0.318505 3.27885,-0.559009 4.79217,-0.890514 1.80434,-0.396507 3.35647,-0.208004 4.00642,1.046517 1.25139,2.431039 3.15274,4.901079 3.25945,7.37762 1.05739,23.41988 1.95956,46.846265 2.58041,70.272645 0.48503,18.3368 1.3193,36.6996 0.41713,55.01689 -0.63055,12.89621 -0.69846,25.90292 -4.42355,38.68213 -1.54242,5.29759 -4.33624,10.46517 -9.06051,14.57974 -7.6636,6.66911 -16.86963,12.1747 -29.98506,14.42373 -18.27623,3.13305 -36.65918,4.47858 -55.43015,4.02357 -17.42257,-0.42251 -34.4183,-2.32704 -51.31703,-5.32359 -13.12513,-2.32704 -21.21557,-7.77412 -27.28824,-15.41175 -5.17051,-6.5001 -6.78084,-13.58522 -8.8083,-20.64433 -2.90052,-10.12717 -3.49227,-20.33233 -3.43407,-30.622 0.18432,-29.40648 -0.0582,-58.81296 0.0291,-88.225935 0.0291,-10.036166 0.21341,-20.085329 0.95067,-30.108492 0.32013,-4.30957 2.15357,-8.573639 3.46317,-12.837709 0.39773,-1.300021 5.88837,-3.035549 7.45989,-2.327037 0.92157,0.416006 1.58122,1.417023 1.74614,2.210035 1.21259,6.1101 2.95873,12.220199 3.23035,18.356299 0.47534,10.835676 0.0582,21.684355 -2.85202,32.409529 -0.19402,0.70851 -0.0873,1.44952 -0.0873,2.17754 0,25.55191 -0.0388,51.10383 0.0485,76.64924 0.01,2.67154 0.95068,5.33659 1.16409,8.02113 0.52385,6.68211 0.68876,13.37722 1.38721,20.04633 0.38803,3.67256 1.58123,7.30612 2.4543,11.15418 0.85366,-0.26651 1.2805,-0.33801 1.58122,-0.50701 14.27952,-7.95613 28.72396,-15.78226 42.72216,-23.94639 6.02417,-3.51656 11.34019,-7.61812 16.5689,-11.68719 6.88754,-5.36259 9.48734,-11.93419 9.55525,-18.82431 0.11641,-10.76417 -0.60145,-21.53485 -0.57235,-32.30552 0.0679,-25.10991 0.41714,-50.219819 0.55295,-75.329727 0.0291,-5.239085 -0.56265,-10.47817 -0.46564,-15.710755 0.097,-5.200084 1.95955,-10.185665 5.1608,-14.904742 6.12119,0.344506 9.39034,2.496041 9.65226,6.591107 0.24252,3.770061 0.097,7.559623 0.11641,11.336184 0.21342,36.101587 0.40743,72.203173 0.68876,108.304763 0.0388,5.59659 0.52384,11.19968 0.77606,16.79627 0.31042,6.88361 5.46153,12.2137 11.94164,17.21228 14.22131,10.96568 31.42076,19.61732 48.51351,28.36646 1.3775,0.70201 2.79382,1.36503 4.20043,2.04754 0.41713,-0.0195 0.85366,-0.039 1.2902,-0.052 z m -147.6262,11.92769 c 3.04604,2.41154 5.31602,5.28458 8.8665,6.76011 5.26751,2.18403 11.27228,3.80256 17.26735,4.92058 24.47503,4.57607 49.42539,5.11558 74.53096,3.08755 13.25124,-1.07252 25.67792,-3.59456 35.21376,-10.40017 0.44624,-0.31851 0.98948,-0.56551 1.49392,-0.83851 4.71457,-2.58055 4.80188,-5.8046 0.0388,-8.41114 -2.93933,-1.60553 -6.03387,-3.08755 -9.16722,-4.52407 -17.80089,-8.15764 -34.67052,-17.03028 -48.13518,-28.47047 -2.37668,-2.02153 -4.56906,-4.14706 -6.95544,-6.3246 -19.85746,18.05729 -45.94281,31.19401 -73.15345,44.20072 z"
     fill="#010103"
     id="path2"
     style="stroke-width:0.794078" /><g
     id="g879"
     transform="matrix(0.68483953,0.42347487,-0.94138153,0.30807098,246.45842,153.41137)"
     style="fill:#666666"><g
       fill="#010103"
       id="g860"
       style="fill:#666666"><path
         d="m 217.07,152.89 c -1.38,8.98 -3.3,18.54 -4.24,28.2 -1.63,16.69 -3.46,33.43 -3.75,50.17 -0.46,27.41 3.74,54.06 15.29,79.37 8.71,19.09 19.15,37.14 30,55.02 0.52,0.86 1.39,1.73 1.43,2.62 0.08,2.04 0.34,4.48 -0.64,6 -0.67,1.05 -3.36,1.25 -5.06,1.08 -3.94,-0.4 -6.81,-2.38 -9.12,-5.91 -12.47,-19.03 -23.89,-38.62 -32.44,-59.75 -7.88,-19.48 -13.65,-39.52 -13.97,-60.76 -0.25,-16.78 -0.95,-33.58 -0.49,-50.35 0.21,-7.6 2.79,-15.12 4.19,-22.7 2.93,-15.83 6.43,-31.58 8.53,-47.52 2.85,-21.58 0.3,-42.91 -6.28,-63.62 -3.28,-10.33 -9.53,-18.64 -19.44,-23.81 -3.69,-1.93 -6.62,-4.59 -7.15,-9.11 -0.54,-4.55 2.23,-7.15 6.74,-6.38 14.83,2.53 24.47,11.48 30.08,24.92 7.95,19.02 11.92,38.84 10.94,59.56 -0.37,7.93 -0.31,15.89 -0.45,23.84 -0.07,4.22 0.47,5.19 4.79,5.31 4.66,0.13 9.35,-0.44 14.02,-0.77 1.11,-0.08 2.19,-0.47 3.29,-0.61 15.83,-2.04 19.38,-11.91 22.3,-24.58 1.54,-6.66 0.46,-13.41 -1.74,-19.83 -5.17,-15.11 -10.57,-30.15 -15.74,-45.26 -1.11,-3.26 -1.79,-6.69 -2.4,-10.09 -0.42,-2.35 0.22,-4.51 2.75,-5.51 2.94,-1.16 5.73,-0.39 7.26,2.06 12.39,19.83 20.1,41.42 23.17,64.52 1.6,12.01 -0.04,23.88 -5.63,34.95 -5.76,11.4 -20.41,19.65 -33.16,19.02 -7.44,-0.38 -14.94,-0.08 -23.08,-0.08 z"
         id="path852"
         style="fill:#666666" /><path
         d="m 134.73,247.85 c 1.04,-25.11 3.34,-49.86 10.7,-73.95 1,-3.28 3.1,-4.87 6.1,-5.23 2.92,-0.35 5.72,1.99 6.04,5.57 0.41,4.62 0.37,9.36 -0.13,13.98 -2.34,21.68 -5.03,43.32 -7.32,65 -1.4,13.28 0.78,26.34 3.56,39.27 2.98,13.87 5.97,27.74 9.37,41.51 1.36,5.5 4.17,10.62 5.7,16.09 1.5,5.34 2.3,10.89 3.19,16.38 0.13,0.79 -0.81,2.25 -1.61,2.61 -6.1,2.77 -6.62,2.52 -10.36,-3.06 -6.83,-10.18 -9.44,-21.88 -12.12,-33.53 -3.23,-14.05 -6.83,-28.06 -9.03,-42.27 -2.18,-14 -2.8,-28.24 -4.09,-42.37 z"
         id="path854"
         style="fill:#666666" /><path
         d="m 305.21,340.24 c -6.7,1.48 -10.25,-0.31 -13.04,-5.93 -10.07,-20.26 -19.1,-40.94 -25.6,-62.6 -2.13,-7.09 -2.43,-14.74 -3.38,-22.16 -2.65,-20.86 -5.23,-41.73 -7.77,-62.6 -0.98,-8.07 -0.93,-16.06 2.47,-23.72 0.83,-1.87 1.84,-2.18 3.62,-1.53 4.99,1.81 8.13,5.44 8.91,10.48 1.25,8.06 2.05,16.19 2.7,24.33 1.48,18.51 2.5,37.05 4.19,55.53 0.96,10.53 4.32,20.47 9.07,29.99 7.19,14.42 13.58,29.21 17.23,44.98 0.98,4.28 1.08,8.76 1.6,13.23 z"
         id="path856"
         style="fill:#666666" /><path
         d="m 154.2342,97.262381 c -1.12,13.249999 -11.41385,43.072949 -24.48887,53.953039 -10.86538,12.61122 -16.27893,23.60184 -28.2012,23.38065 C 98.974129,174.56607 90.68,168.59 90.38,165.86 c -0.28,-2.53 -0.44,-5.02 2.51,-6.61 12.7,-6.84 15.57754,-11.40238 25.296,-21.79629 4.73515,-8.31569 9.28031,-14.35172 15.2865,-26.29412 4.12144,-14.384439 3.19998,-11.07739 1.90911,-24.619031 C 128.28495,64.784694 121.89794,70.611689 123.88,57.29 c 0.37,-2.22 1.31,-3.05 3.33,-2.22 2.85,1.17 6.80429,0.776982 10.8708,5.093945 12.25593,15.293217 14.53777,26.328012 16.1534,37.098436 z"
         id="path858"
         style="fill:#666666"
         sodipodi:nodetypes="cccccccccccc" /></g><path
       d="m 377.9,391.2 c -0.2,0.3 -0.4,0.5 -0.6,0.8 -0.7,-0.6 -1.4,-1 -2.2,-1.5 0.2,-0.3 0.4,-0.5 0.5,-0.8 0.6,0.4 1.4,0.8 2.3,1.5 z m -1.8,6.1 c -0.2,-0.2 -0.5,-0.4 -0.9,-0.6 0.4,-0.6 0.8,-1.2 1.2,-1.9 0.4,-0.7 0.7,-1.3 0.9,-1.9 0.3,0.3 0.5,0.5 0.8,0.7 -0.7,1.3 -1.4,2.6 -2,3.7 z m 2.2,-9 c -0.3,0.3 -0.5,0.5 -0.6,0.8 -0.6,-0.6 -1.3,-1.1 -2,-1.5 0.3,-0.3 0.5,-0.5 0.6,-0.7 0.6,0.5 1.3,0.9 2,1.4 z m 0.3,0.2 v -0.9 h 2 4.5 c -0.3,1.3 -0.6,2.5 -1,3.6 -0.4,1.1 -0.9,2.1 -1.4,3 0.4,0.5 1,1 1.6,1.4 0.6,0.4 1.2,0.8 1.9,1.1 -0.3,0.2 -0.5,0.4 -0.8,0.8 -0.4,-0.3 -1,-0.7 -1.6,-1.2 -0.6,-0.5 -1.2,-1.1 -1.6,-1.6 -0.5,0.6 -1.1,1.1 -1.7,1.6 -0.6,0.5 -1.4,0.9 -2.1,1.4 -0.1,-0.3 -0.3,-0.5 -0.7,-0.8 0.6,-0.2 1.2,-0.5 1.9,-1 0.7,-0.5 1.4,-1.1 2,-1.8 -0.5,-0.8 -0.9,-1.6 -1.2,-2.5 -0.3,-0.9 -0.6,-2 -0.8,-3.2 -0.4,0.1 -0.7,0.1 -1,0.1 z m 2.5,2.7 c 0.3,1 0.7,1.7 1,2.2 0.3,-0.5 0.6,-1.1 1,-2 0.4,-0.9 0.6,-1.9 0.9,-3 h -3.2 -0.4 c 0.1,0.9 0.3,1.8 0.7,2.8 z"
       fill="#fcfbfa"
       id="path862"
       style="fill:#666666" /><path
       d="m 396.5,388.5 v 1.5 3.6 h 1.5 v 0.9 c -0.4,0 -1,0 -1.7,0 h -7.9 c -0.5,0 -0.9,0 -1.2,0 v -0.9 h 1.3 v -3.5 c 0,-0.7 0,-1.2 0,-1.6 h 2.4 c 0,-0.8 0,-1.4 0,-1.7 h 1 c 0,0.3 -0.1,0.8 -0.1,1.7 h 1.5 c 0,-0.8 0,-1.4 0,-1.7 h 1 c 0,0.3 -0.1,0.9 -0.1,1.7 z m -8.2,9.2 c -0.2,-0.3 -0.5,-0.5 -0.8,-0.8 0.8,-0.3 1.4,-0.6 1.9,-0.9 0.5,-0.3 1,-0.7 1.4,-1.1 0.3,0.3 0.6,0.5 0.9,0.8 -1.6,1 -2.8,1.6 -3.4,2 z m 2.6,-6.8 v -1.6 h -1.5 v 1.6 z m 0,2.7 v -1.9 h -1.5 v 1.9 z m 2.4,-2.7 v -1.6 h -1.5 v 1.6 z m 0,2.7 v -1.9 h -1.5 v 1.9 z m 0.2,2 0.7,-0.8 c 0.4,0.2 0.9,0.5 1.6,0.8 0.7,0.3 1.3,0.7 1.8,1 -0.3,0.3 -0.5,0.5 -0.8,0.8 -0.4,-0.3 -1.5,-1 -3.3,-1.8 z m 2,-4.7 v -1.6 h -1.4 v 1.6 z m 0,2.7 v -1.9 h -1.4 v 1.9 z"
       fill="#fcfbfa"
       id="path864"
       style="fill:#666666" /></g></svg>
